<svg xmlns="http://www.w3.org/2000/svg" viewBox="0 0 16 16" width="100%" height="100%">
  <rect width="16" height="16" fill="#1a1a1a"/>
  <rect x="2" y="4" width="1" height="1" fill="#A64B53"/>
  <rect x="3" y="4" width="1" height="1" fill="#A64B53"/>
  <rect x="4" y="4" width="1" height="1" fill="#A64B53"/>
  <rect x="5" y="4" width="1" height="1" fill="#A64B53"/>
  <rect x="9" y="4" width="1" height="1" fill="#A64B53"/>
  <rect x="13" y="4" width="1" height="1" fill="#A64B53"/>
  <rect x="2" y="5" width="1" height="1" fill="#A64B53"/>
  <rect x="6" y="5" width="1" height="1" fill="#A64B53"/>
  <rect x="9" y="5" width="1" height="1" fill="#A64B53"/>
  <rect x="10" y="5" width="1" height="1" fill="#A64B53"/>
  <rect x="12" y="5" width="1" height="1" fill="#A64B53"/>
  <rect x="13" y="5" width="1" height="1" fill="#A64B53"/>
  <rect x="2" y="6" width="1" height="1" fill="#A64B53"/>
  <rect x="6" y="6" width="1" height="1" fill="#A64B53"/>
  <rect x="9" y="6" width="1" height="1" fill="#A64B53"/>
  <rect x="11" y="6" width="1" height="1" fill="#A64B53"/>
  <rect x="13" y="6" width="1" height="1" fill="#A64B53"/>
  <rect x="2" y="7" width="1" height="1" fill="#A64B53"/>
  <rect x="6" y="7" width="1" height="1" fill="#A64B53"/>
  <rect x="9" y="7" width="1" height="1" fill="#A64B53"/>
  <rect x="11" y="7" width="1" height="1" fill="#A64B53"/>
  <rect x="13" y="7" width="1" height="1" fill="#A64B53"/>
  <rect x="2" y="8" width="1" height="1" fill="#A64B53"/>
  <rect x="6" y="8" width="1" height="1" fill="#A64B53"/>
  <rect x="9" y="8" width="1" height="1" fill="#A64B53"/>
  <rect x="13" y="8" width="1" height="1" fill="#A64B53"/>
  <rect x="2" y="9" width="1" height="1" fill="#A64B53"/>
  <rect x="3" y="9" width="1" height="1" fill="#A64B53"/>
  <rect x="4" y="9" width="1" height="1" fill="#A64B53"/>
  <rect x="5" y="9" width="1" height="1" fill="#A64B53"/>
  <rect x="9" y="9" width="1" height="1" fill="#A64B53"/>
  <rect x="13" y="9" width="1" height="1" fill="#A64B53"/>
  <rect x="2" y="3" width="1" height="1" fill="#52B2A2"/>
  <rect x="3" y="3" width="1" height="1" fill="#52B2A2"/>
  <rect x="4" y="3" width="1" height="1" fill="#52B2A2"/>
  <rect x="5" y="3" width="1" height="1" fill="#52B2A2"/>
  <rect x="9" y="3" width="1" height="1" fill="#52B2A2"/>
  <rect x="13" y="3" width="1" height="1" fill="#52B2A2"/>
  <rect x="2" y="4" width="1" height="1" fill="#52B2A2"/>
  <rect x="6" y="4" width="1" height="1" fill="#52B2A2"/>
  <rect x="9" y="4" width="1" height="1" fill="#52B2A2"/>
  <rect x="10" y="4" width="1" height="1" fill="#52B2A2"/>
  <rect x="12" y="4" width="1" height="1" fill="#52B2A2"/>
  <rect x="13" y="4" width="1" height="1" fill="#52B2A2"/>
  <rect x="2" y="5" width="1" height="1" fill="#52B2A2"/>
  <rect x="6" y="5" width="1" height="1" fill="#52B2A2"/>
  <rect x="9" y="5" width="1" height="1" fill="#52B2A2"/>
  <rect x="11" y="5" width="1" height="1" fill="#52B2A2"/>
  <rect x="13" y="5" width="1" height="1" fill="#52B2A2"/>
  <rect x="2" y="6" width="1" height="1" fill="#52B2A2"/>
  <rect x="6" y="6" width="1" height="1" fill="#52B2A2"/>
  <rect x="9" y="6" width="1" height="1" fill="#52B2A2"/>
  <rect x="11" y="6" width="1" height="1" fill="#52B2A2"/>
  <rect x="13" y="6" width="1" height="1" fill="#52B2A2"/>
  <rect x="2" y="7" width="1" height="1" fill="#52B2A2"/>
  <rect x="6" y="7" width="1" height="1" fill="#52B2A2"/>
  <rect x="9" y="7" width="1" height="1" fill="#52B2A2"/>
  <rect x="13" y="7" width="1" height="1" fill="#52B2A2"/>
  <rect x="2" y="8" width="1" height="1" fill="#52B2A2"/>
  <rect x="3" y="8" width="1" height="1" fill="#52B2A2"/>
  <rect x="4" y="8" width="1" height="1" fill="#52B2A2"/>
  <rect x="5" y="8" width="1" height="1" fill="#52B2A2"/>
  <rect x="9" y="8" width="1" height="1" fill="#52B2A2"/>
  <rect x="13" y="8" width="1" height="1" fill="#52B2A2"/>
</svg>